<svg width="40" height="40" viewBox="0 0 40 40" fill="none" xmlns="http://www.w3.org/2000/svg">
  <circle cx="20" cy="20" r="20" fill="#7C4DFF" opacity="0.9"/>
  <path d="M19.5 14C17.84 14 16.18 14.5 14.9 15.4C13.6 16.3 12.70 17.6 12.40 19C10.7 19.2 9.20 20.2 8.30 21.5C7.40 22.8 7.20 24.5 7.70 26C8.30 27.5 9.50 28.7 11 29.3H11.1C11.2 29.3 11.3 29.3 11.4 29.3H26.8C27.4 29.3 28 29.3 28.5 29.1C29.5 28.7 30.3 28 30.9 27.1C31.4 26.2 31.7 25.1 31.7 24C31.8 22.5 31.3 21 30.3 19.8C29.4 18.7 28 18 26.5 17.8C26 16.2 24.9 14.9 23.5 14.3C22.2 13.7 20.8 13.7 19.5 14Z" fill="white"/>
</svg>
